<?xml version="1.0" encoding="UTF-8"?>
<svg width="16" height="16" viewBox="0 0 16 16" xmlns="http://www.w3.org/2000/svg">
  <rect width="16" height="16" fill="#006837"/>
  <path d="M8 2C4.68629 2 2 4.68629 2 8C2 11.3137 4.68629 14 8 14C11.3137 14 14 11.3137 14 8C14 4.68629 11.3137 2 8 2ZM8 3C10.7614 3 13 5.23858 13 8C13 10.7614 10.7614 13 8 13C5.23858 13 3 10.7614 3 8C3 5.23858 5.23858 3 8 3Z" fill="#D4AF37"/>
  <path d="M8 5C6.89543 5 6 5.89543 6 7C6 8.10457 6.89543 9 8 9C9.10457 9 10 8.10457 10 7C10 5.89543 9.10457 5 8 5ZM5 7C5 4.23858 7.23858 2 10 2C12.7614 2 15 4.23858 15 7C15 9.76142 12.7614 12 10 12C7.23858 12 5 9.76142 5 7Z" fill="#D4AF37"/>
  <path d="M6 10C4.89543 10 4 10.8954 4 12C4 13.1046 4.89543 14 6 14C7.10457 14 8 13.1046 8 12C8 10.8954 7.10457 10 6 10ZM10 10C8.89543 10 8 10.8954 8 12C8 13.1046 8.89543 14 10 14C11.1046 14 12 13.1046 12 12C12 10.8954 11.1046 10 10 10Z" fill="#D4AF37"/>
</svg>